<svg width="35" height="35" viewBox="0 0 35 35" fill="none" xmlns="http://www.w3.org/2000/svg">
<path d="M22.6771 18.9584C23.7708 18.9584 24.7333 18.3604 25.2292 17.4563L30.45 7.99169C30.5729 7.77064 30.636 7.52133 30.6329 7.26843C30.6299 7.01554 30.5609 6.76781 30.4327 6.54978C30.3045 6.33174 30.1217 6.15095 29.9022 6.0253C29.6827 5.89964 29.4342 5.83348 29.1813 5.83335H7.59793L6.22709 2.91669H1.45834V5.83335H4.37501L9.62501 16.9021L7.65626 20.4604C6.59168 22.4146 7.99168 24.7917 10.2083 24.7917H27.7083V21.875H10.2083L11.8125 18.9584H22.6771ZM8.98334 8.75002H26.7021L22.6771 16.0417H12.4396L8.98334 8.75002ZM10.2083 26.25C8.60418 26.25 7.30626 27.5625 7.30626 29.1667C7.30626 30.7709 8.60418 32.0834 10.2083 32.0834C11.8125 32.0834 13.125 30.7709 13.125 29.1667C13.125 27.5625 11.8125 26.25 10.2083 26.25ZM24.7917 26.25C23.1875 26.25 21.8896 27.5625 21.8896 29.1667C21.8896 30.7709 23.1875 32.0834 24.7917 32.0834C26.3958 32.0834 27.7083 30.7709 27.7083 29.1667C27.7083 27.5625 26.3958 26.25 24.7917 26.25Z" fill="white"/>
</svg>
